<?xml version="1.0" encoding="UTF-8"?>
<svg width="192px" height="40px" viewBox="0 0 192 40" version="1.1" xmlns="http://www.w3.org/2000/svg" xmlns:xlink="http://www.w3.org/1999/xlink">
    <defs>
        <path d="M20.88,14.036 C20.4959981,12.2119909 19.6500065,10.8440046 18.342,9.932 C17.0339935,9.01999544 15.480009,8.564 13.68,8.564 C12.1439923,8.564 10.8300055,8.85199712 9.738,9.428 C8.64599454,10.0040029 7.74600354,10.7779951 7.038,11.75 C6.32999646,12.7220049 5.80800168,13.8319938 5.472,15.08 C5.13599832,16.3280062 4.968,17.6239933 4.968,18.968 C4.968,20.4320073 5.13599832,21.8179935 5.472,23.126 C5.80800168,24.4340065 6.32999646,25.5739951 7.038,26.546 C7.74600354,27.5180049 8.65199448,28.2919971 9.756,28.868 C10.8600055,29.4440029 12.1799923,29.732 13.716,29.732 C14.8440056,29.732 15.8459956,29.5460019 16.722,29.174 C17.5980044,28.8019981 18.3539968,28.2860033 18.99,27.626 C19.6260032,26.9659967 20.1239982,26.1800046 20.484,25.268 C20.8440018,24.3559954 21.0599996,23.3720053 21.132,22.316 L24.552,22.316 C24.2159983,25.5560162 23.1000095,28.075991 21.204,29.876 C19.3079905,31.676009 16.7160164,32.576 13.428,32.576 C11.43599,32.576 9.69600744,32.2340034 8.208,31.55 C6.71999256,30.8659966 5.48400492,29.924006 4.5,28.724 C3.51599508,27.523994 2.77800246,26.1080082 2.286,24.476 C1.79399754,22.8439918 1.548,21.0920094 1.548,19.22 C1.548,17.3479906 1.81199736,15.5900082 2.34,13.946 C2.86800264,12.3019918 3.6419949,10.8680061 4.662,9.644 C5.6820051,8.41999388 6.95399238,7.45400354 8.478,6.746 C10.0020076,6.03799646 11.7479902,5.684 13.716,5.684 C15.0600067,5.684 16.331994,5.8639982 17.532,6.224 C18.732006,6.5840018 19.7999953,7.11199652 20.736,7.808 C21.6720047,8.50400348 22.4519969,9.37399478 23.076,10.418 C23.7000031,11.4620052 24.107999,12.6679932 24.3,14.036 L20.88,14.036 Z M31.536,10.04 L28.476,10.04 L28.476,6.296 L31.536,6.296 L31.536,10.04 Z M28.476,13.388 L31.536,13.388 L31.536,32 L28.476,32 L28.476,13.388 Z M44.676,32 L41.4,32 L34.488,13.388 L37.908,13.388 L43.128,28.904 L43.2,28.904 L48.276,13.388 L51.48,13.388 L44.676,32 Z M57.528,10.04 L54.468,10.04 L54.468,6.296 L57.528,6.296 L57.528,10.04 Z M54.468,13.388 L57.528,13.388 L57.528,32 L54.468,32 L54.468,13.388 Z M74.916,19.364 C74.6759988,18.1879941 74.1720038,17.2760032 73.404,16.628 C72.6359962,15.9799968 71.6040065,15.656 70.308,15.656 C69.2039945,15.656 68.2800037,15.859998 67.536,16.268 C66.7919963,16.676002 66.1980022,17.2159966 65.754,17.888 C65.3099978,18.5600034 64.992001,19.3339956 64.8,20.21 C64.607999,21.0860044 64.512,21.9919953 64.512,22.928 C64.512,23.7920043 64.613999,24.6319959 64.818,25.448 C65.022001,26.2640041 65.3399978,26.9899968 65.772,27.626 C66.2040022,28.2620032 66.7679965,28.7719981 67.464,29.156 C68.1600035,29.5400019 68.9879952,29.732 69.948,29.732 C71.4600076,29.732 72.6419957,29.336004 73.494,28.544 C74.3460043,27.751996 74.867999,26.6360072 75.06,25.196 L78.192,25.196 C77.8559983,27.5000115 76.9980069,29.2759938 75.618,30.524 C74.2379931,31.7720062 72.3600119,32.396 69.984,32.396 C68.5679929,32.396 67.3140055,32.1680023 66.222,31.712 C65.1299945,31.2559977 64.2180037,30.6080042 63.486,29.768 C62.7539963,28.9279958 62.2020019,27.9260058 61.83,26.762 C61.4579981,25.5979942 61.272,24.320007 61.272,22.928 C61.272,21.535993 61.4519982,20.2340061 61.812,19.022 C62.1720018,17.8099939 62.7179963,16.7540045 63.45,15.854 C64.1820037,14.9539955 65.0999945,14.2460026 66.204,13.73 C67.3080055,13.2139974 68.5919927,12.956 70.056,12.956 C71.1120053,12.956 72.1019954,13.0819987 73.026,13.334 C73.9500046,13.5860013 74.7659965,13.9759974 75.474,14.504 C76.1820035,15.0320026 76.7639977,15.697996 77.22,16.502 C77.6760023,17.306004 77.9639994,18.2599945 78.084,19.364 L74.916,19.364 Z M87.948,9.176 L79.38,9.176 L79.38,6.296 L99.936,6.296 L99.936,9.176 L91.368,9.176 L91.368,32 L87.948,32 L87.948,9.176 Z M111.204,20.912 C111.156,20.1919964 110.994001,19.5080032 110.718,18.86 C110.441999,18.2119968 110.070002,17.6540023 109.602,17.186 C109.133998,16.7179977 108.582003,16.3460014 107.946,16.07 C107.309997,15.7939986 106.608004,15.656 105.84,15.656 C105.047996,15.656 104.334003,15.7939986 103.698,16.07 C103.061997,16.3460014 102.516002,16.7239976 102.06,17.204 C101.603998,17.6840024 101.244001,18.2419968 100.98,18.878 C100.715999,19.5140032 100.56,20.1919964 100.512,20.912 L111.204,20.912 Z M114.156,26.096 C113.747998,28.1840104 112.848007,29.7559947 111.456,30.812 C110.063993,31.8680053 108.312011,32.396 106.2,32.396 C104.711993,32.396 103.422005,32.1560024 102.33,31.676 C101.237995,31.1959976 100.320004,30.5240043 99.576,29.66 C98.8319963,28.7959957 98.2740019,27.764006 97.902,26.564 C97.5299981,25.363994 97.3200002,24.0560071 97.272,22.64 C97.272,21.2239929 97.4879978,19.9280059 97.92,18.752 C98.3520022,17.5759941 98.9579961,16.5560043 99.738,15.692 C100.518004,14.8279957 101.441995,14.1560024 102.51,13.676 C103.578005,13.1959976 104.747994,12.956 106.02,12.956 C107.676008,12.956 109.049995,13.2979966 110.142,13.982 C111.234005,14.6660034 112.109997,15.5359947 112.77,16.592 C113.430003,17.6480053 113.885999,18.7999938 114.138,20.048 C114.390001,21.2960062 114.492,22.4839944 114.444,23.612 L100.512,23.612 C100.488,24.4280041 100.583999,25.2019963 100.8,25.934 C101.016001,26.6660037 101.363998,27.3139972 101.844,27.878 C102.324002,28.4420028 102.935996,28.8919983 103.68,29.228 C104.424004,29.5640017 105.299995,29.732 106.308,29.732 C107.604006,29.732 108.665996,29.432003 109.494,28.832 C110.322004,28.231997 110.867999,27.3200061 111.132,26.096 L114.156,26.096 Z M130.248,19.364 C130.007999,18.1879941 129.504004,17.2760032 128.736,16.628 C127.967996,15.9799968 126.936006,15.656 125.64,15.656 C124.535994,15.656 123.612004,15.859998 122.868,16.268 C122.123996,16.676002 121.530002,17.2159966 121.086,17.888 C120.641998,18.5600034 120.324001,19.3339956 120.132,20.21 C119.939999,21.0860044 119.844,21.9919953 119.844,22.928 C119.844,23.7920043 119.945999,24.6319959 120.15,25.448 C120.354001,26.2640041 120.671998,26.9899968 121.104,27.626 C121.536002,28.2620032 122.099997,28.7719981 122.796,29.156 C123.492003,29.5400019 124.319995,29.732 125.28,29.732 C126.792008,29.732 127.973996,29.336004 128.826,28.544 C129.678004,27.751996 130.199999,26.6360072 130.392,25.196 L133.524,25.196 C133.187998,27.5000115 132.330007,29.2759938 130.95,30.524 C129.569993,31.7720062 127.692012,32.396 125.316,32.396 C123.899993,32.396 122.646005,32.1680023 121.554,31.712 C120.461995,31.2559977 119.550004,30.6080042 118.818,29.768 C118.085996,28.9279958 117.534002,27.9260058 117.162,26.762 C116.789998,25.5979942 116.604,24.320007 116.604,22.928 C116.604,21.535993 116.783998,20.2340061 117.144,19.022 C117.504002,17.8099939 118.049996,16.7540045 118.782,15.854 C119.514004,14.9539955 120.431994,14.2460026 121.536,13.73 C122.640006,13.2139974 123.923993,12.956 125.388,12.956 C126.444005,12.956 127.433995,13.0819987 128.358,13.334 C129.282005,13.5860013 130.097996,13.9759974 130.806,14.504 C131.514004,15.0320026 132.095998,15.697996 132.552,16.502 C133.008002,17.306004 133.295999,18.2599945 133.416,19.364 L130.248,19.364 Z M136.944,6.296 L140.004,6.296 L140.004,16.124 L140.076,16.124 C140.316001,15.5479971 140.651998,15.062002 141.084,14.666 C141.516002,14.269998 142.001997,13.9460013 142.542,13.694 C143.082003,13.4419987 143.645997,13.2560006 144.234,13.136 C144.822003,13.0159994 145.391997,12.956 145.944,12.956 C147.168006,12.956 148.187996,13.1239983 149.004,13.46 C149.820004,13.796 150.479997,14.263997 150.984,14.864 C151.488003,15.464003 151.841999,16.1779959 152.046,17.006 C152.250001,17.8340041 152.352,18.751995 152.352,19.76 L152.352,32 L149.292,32 L149.292,19.4 C149.292,18.2479942 148.956003,17.3360034 148.284,16.664 C147.611997,15.9919966 146.688006,15.656 145.512,15.656 C144.575995,15.656 143.766003,15.7999986 143.082,16.088 C142.397997,16.3760014 141.828002,16.7839974 141.372,17.312 C140.915998,17.8400026 140.574001,18.4579965 140.346,19.166 C140.117999,19.8740035 140.004,20.6479958 140.004,21.488 L140.004,32 L136.944,32 L136.944,6.296 Z M157.356,20.804 C157.356,20.1799969 157.583998,19.6400023 158.04,19.184 C158.496002,18.7279977 159.035997,18.5 159.66,18.5 C160.284003,18.5 160.823998,18.7279977 161.28,19.184 C161.736002,19.6400023 161.964,20.1799969 161.964,20.804 C161.964,21.3800029 161.736002,21.9079976 161.28,22.388 C160.823998,22.8680024 160.296003,23.108 159.696,23.108 C159.071997,23.108 158.526002,22.8800023 158.058,22.424 C157.589998,21.9679977 157.356,21.4280031 157.356,20.804 Z M170.208,10.04 L167.148,10.04 L167.148,6.296 L170.208,6.296 L170.208,10.04 Z M167.148,13.388 L170.208,13.388 L170.208,32 L167.148,32 L167.148,13.388 Z M187.884,20.912 C187.836,20.1919964 187.674001,19.5080032 187.398,18.86 C187.121999,18.2119968 186.750002,17.6540023 186.282,17.186 C185.813998,16.7179977 185.262003,16.3460014 184.626,16.07 C183.989997,15.7939986 183.288004,15.656 182.52,15.656 C181.727996,15.656 181.014003,15.7939986 180.378,16.07 C179.741997,16.3460014 179.196002,16.7239976 178.74,17.204 C178.283998,17.6840024 177.924001,18.2419968 177.66,18.878 C177.395999,19.5140032 177.24,20.1919964 177.192,20.912 L187.884,20.912 Z M190.836,26.096 C190.427998,28.1840104 189.528007,29.7559947 188.136,30.812 C186.743993,31.8680053 184.992011,32.396 182.88,32.396 C181.391993,32.396 180.102005,32.1560024 179.01,31.676 C177.917995,31.1959976 177.000004,30.5240043 176.256,29.66 C175.511996,28.7959957 174.954002,27.764006 174.582,26.564 C174.209998,25.363994 174,24.0560071 173.952,22.64 C173.952,21.2239929 174.167998,19.9280059 174.6,18.752 C175.032002,17.5759941 175.637996,16.5560043 176.418,15.692 C177.198004,14.8279957 178.121995,14.1560024 179.19,13.676 C180.258005,13.1959976 181.427994,12.956 182.7,12.956 C184.356008,12.956 185.729995,13.2979966 186.822,13.982 C187.914005,14.6660034 188.789997,15.5359947 189.45,16.592 C190.110003,17.6480053 190.565999,18.7999938 190.818,20.048 C191.070001,21.2960062 191.172,22.4839944 191.124,23.612 L177.192,23.612 C177.168,24.4280041 177.263999,25.2019963 177.48,25.934 C177.696001,26.6660037 178.043998,27.3139972 178.524,27.878 C179.004002,28.4420028 179.615996,28.8919983 180.36,29.228 C181.104004,29.5640017 181.979995,29.732 182.988,29.732 C184.284006,29.732 185.345996,29.432003 186.174,28.832 C187.002004,28.231997 187.547999,27.3200061 187.812,26.096 L190.836,26.096 Z" id="logo-path"></path>
    </defs>
      <rect fill="#DCDCDC" x="0" y="0" width="192" height="40"></rect>
      <g  fill-rule="nonzero" fill="#000000">
        <use xlink:href="#logo-path"></use>
      </g>
</svg>