<?xml version="1.0" encoding="UTF-8"?>
<svg width="296px" height="34px" viewBox="0 0 296 34" version="1.1" xmlns="http://www.w3.org/2000/svg" xmlns:xlink="http://www.w3.org/1999/xlink">
    <g id="Page-1" stroke="none" stroke-width="1" fill="none" fill-rule="evenodd">
        <path d="M28.548,13.716 C28.548,18.648 26.784,22.572 23.58,24.804 C21.348,26.352 18.468,27 13.932,27 L0.684,27 L0.684,25.056 L1.224,25.056 C3.096,25.056 3.852,24.912 4.176,24.516 C4.428,24.228 4.428,24.084 4.428,21.816 L4.428,6.192 C4.428,3.924 4.428,3.78 4.176,3.492 C3.852,3.096 3.096,2.952 1.224,2.952 L0.684,2.952 L0.684,1.008 L13.5,1.008 C18.576,1.008 21.24,1.512 23.4,2.952 C26.784,5.184 28.548,8.892 28.548,13.716 Z M21.384,13.644 C21.384,6.444 18.972,2.952 13.968,2.952 L13.068,2.952 C11.34,2.952 10.908,3.384 10.908,5.112 L10.908,22.716 C10.908,24.624 11.304,25.056 13.068,25.056 L13.824,25.056 C19.188,25.056 21.384,21.564 21.384,13.644 Z M53.25,26.604 L44.862,27 L44.862,24.048 C42.774,26.604 41.046,27.54 38.49,27.54 C36.042,27.54 34.134,26.424 33.162,24.444 C32.658,23.436 32.586,22.788 32.586,20.124 L32.586,15.552 C32.55,12.132 32.514,12.06 30.282,12.06 L29.706,12.06 L29.706,10.224 L38.238,9.972 L38.238,20.34 C38.238,23.076 38.994,24.192 40.794,24.192 C42.162,24.192 43.422,23.364 43.998,22.14 C44.466,21.24 44.61,20.232 44.61,18.432 L44.61,15.552 C44.61,12.204 44.502,12.06 42.306,12.06 L41.73,12.06 L41.73,10.224 L50.262,9.972 L50.262,23.112 C50.262,24.408 50.55,24.66 52.242,24.66 L53.25,24.66 L53.25,26.604 Z M75.18,18.18 C75.18,23.724 71.436,27.54 65.964,27.54 C63.264,27.54 61.428,26.676 59.736,24.624 L57.396,27.504 L55.632,27.504 C55.992,25.524 56.136,23.076 56.136,19.584 L56.136,6.192 C56.136,2.988 56.028,2.844 53.832,2.844 L53.148,2.844 L53.148,1.008 L61.788,0.468 L61.788,12.132 C63.264,10.26 64.956,9.432 67.368,9.432 C71.94,9.432 75.18,13.068 75.18,18.18 Z M68.952,18.612 C68.952,14.292 67.836,12.132 65.568,12.132 C63.048,12.132 61.752,14.58 61.752,19.368 C61.752,23.436 63.012,25.668 65.388,25.668 C67.728,25.668 68.952,23.256 68.952,18.612 Z M87.642,27 L87.642,25.164 L87.138,25.164 C86.454,25.164 85.734,25.056 85.482,24.912 C85.05,24.696 84.942,24.408 84.942,23.508 L84.942,0.468 L76.302,1.008 L76.302,2.844 L76.986,2.844 C79.182,2.844 79.29,2.988 79.29,6.192 L79.29,23.508 C79.29,24.948 79.254,25.164 76.914,25.164 L76.41,25.164 L76.41,27 L87.642,27 Z M99.924,27 L99.924,25.164 L99.348,25.164 C97.152,25.164 97.116,24.912 97.116,23.508 L97.116,9.972 L88.656,10.224 L88.656,12.06 L89.16,12.06 C91.356,12.06 91.464,12.24 91.464,15.444 L91.464,23.472 C91.464,24.912 91.428,25.164 89.16,25.164 L88.656,25.164 L88.656,27 L99.924,27 Z M96.828,4.32 C96.828,2.952 95.676,1.8 94.308,1.8 C92.904,1.8 91.752,2.952 91.752,4.32 C91.752,5.724 92.904,6.876 94.272,6.876 C95.676,6.876 96.828,5.76 96.828,4.32 Z M124.266,27 L124.266,25.164 L123.762,25.164 C121.458,25.164 121.422,24.948 121.422,23.472 L121.422,15.804 C121.422,13.572 121.026,12.204 120.054,11.16 C119.082,10.044 117.462,9.432 115.59,9.432 C112.746,9.432 110.946,10.476 109.182,13.14 L109.182,9.972 L100.938,10.224 L100.938,12.06 L101.478,12.06 C103.674,12.06 103.782,12.204 103.782,15.552 L103.782,23.472 C103.782,24.948 103.746,25.164 101.442,25.164 L100.938,25.164 L100.938,27 L111.918,27 L111.918,25.164 C109.794,25.164 109.434,24.912 109.434,23.508 L109.434,18.324 C109.434,16.704 109.578,15.768 110.01,14.904 C110.586,13.608 111.846,12.78 113.142,12.78 C114.834,12.78 115.77,14.004 115.77,16.308 L115.77,23.508 C115.77,24.912 115.41,25.164 113.286,25.164 L113.286,27 L124.266,27 Z M148.722,27 L148.722,25.056 L148.182,25.056 C146.31,25.056 145.518,24.912 145.194,24.516 C144.942,24.228 144.942,24.12 144.942,21.816 L144.942,6.192 C144.942,3.888 144.942,3.78 145.194,3.492 C145.518,3.096 146.31,2.952 148.182,2.952 L148.722,2.952 L148.722,1.008 L134.718,1.008 L134.718,2.952 L135.258,2.952 C137.13,2.952 137.886,3.096 138.21,3.492 C138.462,3.78 138.462,3.924 138.462,6.192 L138.462,21.816 C138.462,24.084 138.462,24.228 138.21,24.516 C137.886,24.912 137.13,25.056 135.258,25.056 L134.718,25.056 L134.718,27 L148.722,27 Z M172.992,27 L172.992,25.164 L172.488,25.164 C170.184,25.164 170.148,24.948 170.148,23.472 L170.148,15.804 C170.148,13.572 169.752,12.204 168.78,11.16 C167.808,10.044 166.188,9.432 164.316,9.432 C161.472,9.432 159.672,10.476 157.908,13.14 L157.908,9.972 L149.664,10.224 L149.664,12.06 L150.204,12.06 C152.4,12.06 152.508,12.204 152.508,15.552 L152.508,23.472 C152.508,24.948 152.472,25.164 150.168,25.164 L149.664,25.164 L149.664,27 L160.644,27 L160.644,25.164 C158.52,25.164 158.16,24.912 158.16,23.508 L158.16,18.324 C158.16,16.704 158.304,15.768 158.736,14.904 C159.312,13.608 160.572,12.78 161.868,12.78 C163.56,12.78 164.496,14.004 164.496,16.308 L164.496,23.508 C164.496,24.912 164.136,25.164 162.012,25.164 L162.012,27 L172.992,27 Z M201.942,27.648 C201.942,31.104 199.422,33.768 195.75,33.768 C192.006,33.768 189.846,31.392 189.846,28.98 L189.846,27.36 C188.982,27.504 188.442,27.54 187.578,27.54 C180.162,27.54 174.222,21.528 174.222,13.932 C174.222,6.3 180.09,0.468 187.83,0.468 C195.318,0.468 201.294,6.444 201.294,13.932 C201.294,18.576 198.99,22.896 195.174,25.416 C196.218,29.412 197.118,30.42 198.234,30.42 C199.35,30.42 199.818,29.664 199.998,27.648 L201.942,27.648 Z M194.094,13.68 C194.094,7.38 192.33,2.34 187.758,2.34 C183.582,2.34 181.422,6.084 181.422,13.356 C181.422,16.344 181.674,18.648 182.178,20.196 C183.186,17.604 184.878,16.56 187.362,16.56 C190.062,16.56 192.114,17.964 193.194,20.7 C193.77,19.188 194.094,16.56 194.094,13.68 Z M190.026,23.4 C190.026,20.304 188.874,18.612 186.786,18.612 C184.914,18.612 183.618,20.124 183.618,22.248 C183.618,24.3 185.238,25.668 187.65,25.668 C188.514,25.668 188.982,25.56 189.918,25.092 C189.99,24.3 190.026,23.76 190.026,23.4 Z M226.104,26.604 L226.104,24.66 L225.096,24.66 C223.404,24.66 223.116,24.408 223.116,23.112 L223.116,9.972 L214.584,10.224 L214.584,12.06 L215.16,12.06 C217.356,12.06 217.464,12.204 217.464,15.552 L217.464,18.432 C217.464,20.232 217.32,21.24 216.852,22.14 C216.276,23.364 215.016,24.192 213.648,24.192 C211.848,24.192 211.092,23.076 211.092,20.34 L211.092,9.972 L202.56,10.224 L202.56,12.06 L203.136,12.06 C205.368,12.06 205.404,12.132 205.44,15.552 L205.44,20.124 C205.44,22.788 205.512,23.436 206.016,24.444 C206.988,26.424 208.896,27.54 211.344,27.54 C213.9,27.54 215.628,26.604 217.716,24.048 L217.716,27 L226.104,26.604 Z M238.278,27 L238.278,25.164 L237.702,25.164 C235.506,25.164 235.47,24.912 235.47,23.508 L235.47,9.972 L227.01,10.224 L227.01,12.06 L227.514,12.06 C229.71,12.06 229.818,12.24 229.818,15.444 L229.818,23.472 C229.818,24.912 229.782,25.164 227.514,25.164 L227.01,25.164 L227.01,27 L238.278,27 Z M235.182,4.32 C235.182,2.952 234.03,1.8 232.662,1.8 C231.258,1.8 230.106,2.952 230.106,4.32 C230.106,5.724 231.258,6.876 232.626,6.876 C234.03,6.876 235.182,5.76 235.182,4.32 Z M257.184,13.068 C257.184,10.98 255.528,9.432 253.224,9.432 C250.452,9.432 248.544,11.016 247.248,14.328 L247.248,9.972 L239.22,10.224 L239.22,12.06 L239.76,12.06 C241.956,12.06 242.064,12.204 242.064,15.552 L242.064,23.472 C242.064,24.948 242.028,25.164 239.724,25.164 L239.22,25.164 L239.22,27 L251.244,27 L251.244,25.164 L250.452,25.164 C248.148,25.164 247.752,24.948 247.752,23.472 L247.752,21.096 C247.752,18.576 248.364,15.732 249.264,14.148 C250.02,12.816 250.776,12.168 252,11.808 C251.532,12.456 251.388,12.852 251.388,13.5 C251.388,15.048 252.54,16.164 254.088,16.164 C255.852,16.164 257.184,14.832 257.184,13.068 Z M275.946,21.816 C274.362,25.668 271.59,27.54 267.378,27.54 C261.402,27.54 257.658,23.832 257.658,18.648 C257.658,13.464 261.762,9.432 267.342,9.432 C272.598,9.432 275.946,12.852 275.946,18.216 L275.946,18.792 L263.886,18.792 C263.886,23.4 266.01,25.092 268.782,25.092 C271.122,25.092 272.742,23.904 274.182,21.096 L275.946,21.816 Z M270.294,15.66 C270.294,12.816 269.286,11.304 267.45,11.304 C265.29,11.304 263.922,13.392 263.922,16.812 L269.322,16.812 C270.042,16.812 270.294,16.524 270.294,15.66 Z M295.032,13.068 C295.032,10.98 293.376,9.432 291.072,9.432 C288.3,9.432 286.392,11.016 285.096,14.328 L285.096,9.972 L277.068,10.224 L277.068,12.06 L277.608,12.06 C279.804,12.06 279.912,12.204 279.912,15.552 L279.912,23.472 C279.912,24.948 279.876,25.164 277.572,25.164 L277.068,25.164 L277.068,27 L289.092,27 L289.092,25.164 L288.3,25.164 C285.996,25.164 285.6,24.948 285.6,23.472 L285.6,21.096 C285.6,18.576 286.212,15.732 287.112,14.148 C287.868,12.816 288.624,12.168 289.848,11.808 C289.38,12.456 289.236,12.852 289.236,13.5 C289.236,15.048 290.388,16.164 291.936,16.164 C293.7,16.164 295.032,14.832 295.032,13.068 Z" id="Dublin-InQuirer" fill="#020202"></path>
    </g>
</svg>
